<svg xmlns="http://www.w3.org/2000/svg" width="569" height="512" fill="#087ea4" xmlns:v="https://vecta.io/nano"><path d="M285.5 201c-30.1 0-54.5 24.4-54.5 54.5s24.4 54.5 54.5 54.5 54.5-24.4 54.5-54.5-24.4-54.5-54.5-54.5"/><path d="M568.96 255.994c0-42.787-39.622-80.313-102.708-105.009.843-5.562 1.606-11.063 2.148-16.464 6.222-61.48-8.591-105.852-41.689-124.967-37.033-21.383-89.34-5.863-142.23 36.462C231.59 3.691 179.283-11.829 142.25 9.554c-33.099 19.114-47.912 63.487-41.689 124.967.542 5.401 1.285 10.923 2.148 16.504a289.18 289.18 0 0 0-15.375 6.365C31.011 182.709 0 217.765 0 255.994c0 42.787 39.622 80.313 102.708 105.009-.863 5.562-1.606 11.063-2.148 16.464-6.222 61.48 8.591 105.852 41.689 124.967 11.38 6.453 24.274 9.752 37.354 9.557 31.352 0 67.964-16.504 104.876-46.019 36.892 29.515 73.524 46.019 104.916 46.019 13.079.192 25.973-3.107 37.354-9.557 33.099-19.114 47.912-63.487 41.689-124.967-.542-5.401-1.305-10.902-2.148-16.464C529.378 336.347 569 298.761 569 255.994M389.155 27.103a47.44 47.44 0 0 1 24.086 5.903c22.982 13.272 33.299 49.272 28.281 98.765-.341 3.373-.743 6.786-1.224 10.22-26.232-7.902-53.093-13.538-80.288-16.846a480.3 480.3 0 0 0-54.796-61.178c31.372-24.255 60.818-36.864 83.921-36.864m-10.779 283.103c-10.152 17.625-21.206 34.714-33.119 51.199a590.4 590.4 0 0 1-60.778 3.092 590.4 590.4 0 0 1-60.758-3.092 589.48 589.48 0 0 1-33.018-51.199 582.54 582.54 0 0 1-27.639-54.211 582.54 582.54 0 0 1 27.639-54.211 597.07 597.07 0 0 1 32.918-51.019 578.75 578.75 0 0 1 60.878-3.172 591.49 591.49 0 0 1 60.758 3.092c11.871 16.462 22.898 33.517 33.038 51.099a587.48 587.48 0 0 1 27.639 54.211 587.48 587.48 0 0 1-27.639 54.211m41.449-20.078a425.46 425.46 0 0 1 15.656 53.207 420.78 420.78 0 0 1-53.713 12.95 602.68 602.68 0 0 0 20.072-32.507c6.403-11.123 12.404-22.347 18.065-33.571m-173.442 100.17c12.485.763 25.23 1.205 38.137 1.205s25.732-.442 38.237-1.205c-11.856 14.205-24.629 27.62-38.237 40.156-13.578-12.535-26.318-25.949-38.137-40.156zm-59.052-34.133a420.78 420.78 0 0 1-53.733-12.91 425.46 425.46 0 0 1 15.596-53.127c5.58 11.224 11.561 22.447 18.065 33.571s13.227 22.086 20.072 32.507m-38.137-134.524a425.76 425.76 0 0 1-15.556-52.926 426.28 426.28 0 0 1 53.592-12.991c-6.865 10.38-13.589 21.142-20.072 32.366s-12.404 22.307-18.065 33.551m173.542-100.17c-12.485-.763-25.23-1.205-38.237-1.205-12.9 0-25.612.402-38.137 1.205 11.819-14.207 24.558-27.622 38.137-40.156 13.613 12.532 26.386 25.946 38.237 40.156zm79.084 66.62c-6.503-11.271-13.227-22.113-20.172-32.527a420.64 420.64 0 0 1 53.853 12.971c-4.049 18.027-9.258 35.773-15.596 53.127-5.58-11.224-11.582-22.447-18.065-33.551m-274.203-56.44c-5.078-49.473 5.299-85.493 28.261-98.765a47.58 47.58 0 0 1 24.086-5.903c23.103 0 52.548 12.609 83.921 36.864-19.992 18.804-38.337 39.285-54.837 61.219a486.13 486.13 0 0 0-80.288 16.785c-.462-3.433-.883-6.827-1.204-10.2m-29.004 50.316l9.454-4.016c6.314 26.645 14.875 52.706 25.592 77.904a483.37 483.37 0 0 0-25.612 78.064c-51.143-20.982-80.79-50.055-80.79-78.064 0-26.543 26.094-53.468 71.356-73.888zm57.326 296.857c-22.962-13.272-33.34-49.292-28.261-98.765.321-3.373.743-6.766 1.204-10.22a479.19 479.19 0 0 0 80.288 16.846 482.17 482.17 0 0 0 54.796 61.219c-43.737 33.792-83.7 44.935-107.967 30.92m285.664-98.765c5.018 49.493-5.299 85.493-28.281 98.765-24.247 14.055-64.23 2.871-107.947-30.92a482.07 482.07 0 0 0 54.776-61.219c27.195-3.308 54.056-8.944 80.288-16.846.482 3.453.883 6.847 1.224 10.22m19.63-46.18c-6.324-26.686-14.899-52.787-25.632-78.024a485.34 485.34 0 0 0 25.612-78.064c51.043 20.982 80.77 50.055 80.77 78.064s-29.646 57.082-80.79 78.064"/></svg>